<svg xmlns="http://www.w3.org/2000/svg" width="160" height="160" fill="none"><g clip-path="url(#a)"><path fill="#1E1E1E" d="M0 0h160v160H0z"/><g clip-path="url(#b)"><path fill="#1ABCFE" d="M80 82a19.333 19.333 0 1 1 38.667 0A19.333 19.333 0 0 1 80 82Z"/><path fill="#0ACF83" d="M41.333 120.667a19.334 19.334 0 0 1 19.334-19.334H80v19.334A19.331 19.331 0 0 1 60.667 140a19.332 19.332 0 0 1-19.334-19.333Z"/><path fill="#FF7262" d="M80 24v38.667h19.333a19.333 19.333 0 0 0 0-38.667H80Z"/><path fill="#F24E1E" d="M41.333 43.333a19.333 19.333 0 0 0 19.334 19.334H80V24H60.667a19.333 19.333 0 0 0-19.334 19.333Z"/><path fill="#A259FF" d="M41.333 82a19.334 19.334 0 0 0 19.334 19.333H80V62.667H60.667A19.333 19.333 0 0 0 41.333 82Z"/></g></g><defs><clipPath id="a"><path fill="#fff" d="M0 0h160v160H0z"/></clipPath><clipPath id="b"><path fill="#fff" d="M41.333 24h77.333v116H41.333z"/></clipPath></defs></svg>