<svg xmlns="http://www.w3.org/2000/svg" width="160" height="160" fill="none"><path fill="#fff" d="M0 0h160v160H0z"/><g clip-path="url(#a)"><path fill="#00832D" d="m87.32 80 11.6 13.27 15.6 9.978 2.72-23.166-2.72-22.65-15.898 8.766L87.32 80Z"/><path fill="#0066DA" d="M20 101.097v19.736c0 4.512 3.652 8.167 8.16 8.167h19.72l4.08-14.918-4.08-12.985-13.532-4.083L20 101.097Z"/><path fill="#E94235" d="M47.88 31 20 58.903l14.348 4.083 13.532-4.083 4.012-12.808L47.88 31Z"/><path fill="#2684FC" d="M47.88 58.903H20v42.194h27.88V58.903Z"/><path fill="#00AC47" d="M132.336 42.815 114.52 57.433v45.815l17.898 14.686c2.679 2.096 6.596.184 6.596-3.226V45.972c0-3.45-4.006-5.342-6.678-3.157ZM87.32 80v21.097H47.88V129h58.48c4.508 0 8.16-3.655 8.16-8.167v-17.585L87.32 80Z"/><path fill="#FFBA00" d="M106.36 31H47.88v27.903h39.44V80l27.2-22.554v-18.28A8.161 8.161 0 0 0 106.36 31Z"/></g><defs><clipPath id="a"><path fill="#fff" d="M20 31h119v98H20z"/></clipPath></defs></svg>