<svg xmlns="http://www.w3.org/2000/svg" width="160" height="160" fill="none"><path fill="#2D8CFF" d="M0 0h160v160H0z"/><g clip-path="url(#a)"><path fill="#fff" fill-rule="evenodd" d="M125.243 73.596c.55.94.73 2.007.79 3.209l.078 1.6v11.196l.08 1.603c.159 2.617 2.111 4.552 4.779 4.717l1.612.079V78.406l.08-1.601c.066-1.188.244-2.277.803-3.223a6.432 6.432 0 0 1 2.371-2.333 6.525 6.525 0 0 1 6.463.011 6.434 6.434 0 0 1 2.362 2.343c.55.939.722 2.027.788 3.202l.08 1.596v11.2l.08 1.603c.166 2.63 2.103 4.566 4.779 4.717L152 96V76.805c0-3.395-1.363-6.65-3.79-9.05a13.018 13.018 0 0 0-9.15-3.752 13.032 13.032 0 0 0-5.328 1.132 12.902 12.902 0 0 0-4.381 3.204 12.923 12.923 0 0 0-4.382-3.203 13.05 13.05 0 0 0-5.327-1.134c-2.688 0-5.182.806-7.248 2.199-1.26-1.391-4.081-2.2-5.7-2.2V96l1.619-.079c2.708-.176 4.666-2.06 4.771-4.717l.087-1.603V78.406l.079-1.601c.068-1.208.238-2.27.79-3.216a6.453 6.453 0 0 1 2.37-2.334 6.54 6.54 0 0 1 6.465.002 6.442 6.442 0 0 1 2.368 2.339ZM14.471 95.923 16.09 96h24.268l-.08-1.596c-.218-2.63-2.103-4.553-4.771-4.724l-1.62-.079H19.328L38.74 70.399l-.08-1.594c-.125-2.658-2.089-4.578-4.772-4.724l-1.619-.073L8 64.002l.08 1.6c.212 2.606 2.123 4.569 4.77 4.72l1.621.079h14.56L9.618 89.603l.08 1.6c.16 2.638 2.084 4.548 4.772 4.718v.002Zm85.871-27.238a15.98 15.98 0 0 1 3.508 5.191A15.848 15.848 0 0 1 105.082 80c0 2.101-.419 4.182-1.232 6.123a15.978 15.978 0 0 1-3.508 5.19 16.282 16.282 0 0 1-11.443 4.686 16.283 16.283 0 0 1-11.444-4.685 15.876 15.876 0 0 1 0-22.628 16.184 16.184 0 0 1 5.246-3.467A16.328 16.328 0 0 1 88.889 64a16.34 16.34 0 0 1 6.198 1.216 16.191 16.191 0 0 1 5.255 3.471v-.002Zm-4.578 4.531a9.55 9.55 0 0 1 2.842 6.789 9.55 9.55 0 0 1-2.842 6.789 9.769 9.769 0 0 1-6.865 2.81 9.769 9.769 0 0 1-6.865-2.81 9.55 9.55 0 0 1-2.843-6.789 9.55 9.55 0 0 1 2.843-6.789 9.769 9.769 0 0 1 6.865-2.81 9.769 9.769 0 0 1 6.865 2.81ZM54.93 64c2.124 0 4.227.415 6.189 1.219a16.183 16.183 0 0 1 5.245 3.468 15.87 15.87 0 0 1 0 22.626 16.283 16.283 0 0 1-11.444 4.685 16.283 16.283 0 0 1-11.443-4.685 15.876 15.876 0 0 1 0-22.628 16.183 16.183 0 0 1 5.245-3.467A16.328 16.328 0 0 1 54.911 64h.02Zm6.855 9.213a9.55 9.55 0 0 1 2.843 6.79 9.55 9.55 0 0 1-2.843 6.79 9.769 9.769 0 0 1-6.865 2.81 9.768 9.768 0 0 1-6.865-2.81 9.55 9.55 0 0 1-2.842-6.79 9.55 9.55 0 0 1 2.842-6.788 9.768 9.768 0 0 1 6.865-2.81 9.769 9.769 0 0 1 6.865 2.81v-.002Z" clip-rule="evenodd"/></g><defs><clipPath id="a"><path fill="#fff" d="M8 64h144v32H8z"/></clipPath></defs></svg>