<svg xmlns="http://www.w3.org/2000/svg" width="160" height="160" fill="none"><g clip-path="url(#a)"><path fill="#FFD02F" d="M160 0H0c-19.146 0 0 15.52 0 34.667V160c0 19.146 15.52 0 34.667 0h90.666c19.146 0 34.667 19.146 34.667 0V34.667C160 15.52 179.146 0 160 0Z"/><path fill="#050038" fill-rule="evenodd" d="M111.138 20h-17.56l14.633 25.714L76.016 20h-17.56l16.097 31.429L40.894 20h-17.56l17.56 40-17.56 80h17.56l33.659-85.714L58.455 140h17.561l32.195-91.429L93.577 140h17.561l32.195-100-32.195-20Z" clip-rule="evenodd"/></g><defs><clipPath id="a"><path fill="#fff" d="M0 0h160v160H0z"/></clipPath></defs></svg>