<svg width="160" height="160" viewBox="0 0 160 160" fill="none" xmlns="http://www.w3.org/2000/svg">
<g clip-path="url(#clip0_204_2)">
<path d="M125.333 0H34.6667C15.5208 0 0 15.5208 0 34.6667V125.333C0 144.479 15.5208 160 34.6667 160H125.333C144.479 160 160 144.479 160 125.333V34.6667C160 15.5208 144.479 0 125.333 0Z" fill="#FFD02F"/>
<path fill-rule="evenodd" clip-rule="evenodd" d="M111.138 20H93.5773L108.211 45.7143L76.0163 20H58.4553L74.553 51.4287L40.8943 20H23.3333L40.8943 60L23.3333 140H40.8943L74.553 54.2857L58.4553 140H76.0163L108.211 48.5713L93.5773 140H111.138L143.333 40L111.138 20Z" fill="#050038"/>
</g>
<defs>
<clipPath id="clip0_204_2">
<rect width="160" height="160" fill="white"/>
</clipPath>
</defs>
</svg>
