<svg xmlns="http://www.w3.org/2000/svg" width="160" height="160" fill="none"><g clip-path="url(#a)"><path fill="#fff" d="M0 0h160v160H0z"/><path fill="url(#b)" fill-rule="evenodd" d="M160.016-.014-9 0C-19.494 0 .014 8.506 0 19.007V165.5a19.038 19.038 0 0 0 5.544 13.507c3.569 3.586 8.418-19.006 13.476-19.006h121.986c5.053-.007 8.93 7.084 12.494 3.499 3.564-3.585 6.52 18.556 6.5 13.5V19.007C159.986 8.516 170.5 0 160.016-.014ZM69.004 115.243a6.363 6.363 0 0 1-6.409 6.335H35.937a6.333 6.333 0 0 1-6.305-6.335V35.858a6.333 6.333 0 0 1 6.305-6.335h26.658a6.359 6.359 0 0 1 6.332 6.335l.077 79.385Zm61.518-36.448a6.333 6.333 0 0 1-6.408 6.336H97.456a6.36 6.36 0 0 1-6.331-6.336V35.858a6.359 6.359 0 0 1 6.33-6.335h26.659a6.333 6.333 0 0 1 6.306 6.335l.102 42.937Z" clip-rule="evenodd"/></g><defs><linearGradient id="b" x1="24984" x2="24984" y1="10240" y2="0" gradientUnits="userSpaceOnUse"><stop stop-color="#0052CC"/><stop offset="1" stop-color="#2684FF"/></linearGradient><clipPath id="a"><path fill="#fff" d="M0 0h160v160H0z"/></clipPath></defs></svg>