<svg xmlns="http://www.w3.org/2000/svg" width="160" height="160" fill="none"><path fill="#4353FF" d="M0 0h160v160H0z"/><path fill="#fff" d="M110.234 62.896s-9.973 31.23-10.785 33.808C99.153 94.053 91.839 38 91.839 38 74.85 38 65.763 50.08 60.96 62.822c0 0-12.115 31.304-13.15 33.956-.073-2.43-1.846-33.587-1.846-33.587C44.93 47.575 30.598 38.074 19 38.074L33.036 123c17.804-.074 27.407-12.08 32.43-24.822 0 0 10.712-27.622 11.156-28.874.073 1.179 7.683 53.696 7.683 53.696 17.877 0 27.481-11.269 32.652-23.57L142 38.074c-17.656 0-26.964 12.006-31.766 24.822Z"/></svg>