<svg width="250" height="250" viewBox="0 0 250 250" fill="none" xmlns="http://www.w3.org/2000/svg">
<rect width="250" height="250" fill="#E03131"/>
<circle r="18.2123" transform="matrix(-1 0 0 1 200.288 103.712)" stroke="white" stroke-width="5"/>
<circle r="9.3613" transform="matrix(-1 0 0 1 159.139 190.861)" stroke="white" stroke-width="3"/>
<circle r="36" transform="matrix(4.37114e-08 1 1 -4.37114e-08 70.3594 88)" stroke="white" stroke-width="8"/>
<path d="M110.533 116.154C110.065 115.859 109.448 116 109.154 116.467C108.859 116.935 109 117.552 109.467 117.846L110.533 116.154ZM143.359 138L137.972 127.787L131.821 137.559L143.359 138ZM109.467 117.846L135.21 134.052L136.276 132.359L110.533 116.154L109.467 117.846Z" fill="white"/>
<path d="M180.553 121.833C181.013 121.528 181.139 120.908 180.833 120.447C180.528 119.987 179.908 119.861 179.447 120.167L180.553 121.833ZM154.359 138L165.884 137.286L159.504 127.662L154.359 138ZM179.447 120.167L161.308 132.193L162.413 133.86L180.553 121.833L179.447 120.167Z" fill="white"/>
<path d="M155.017 175.185C155.119 175.728 155.642 176.085 156.185 175.983C156.728 175.881 157.085 175.358 156.983 174.815L155.017 175.185ZM150.359 145L146.533 155.895L157.881 153.761L150.359 145ZM156.983 174.815L153.005 153.66L151.04 154.03L155.017 175.185L156.983 174.815Z" fill="white"/>
</svg>
