<svg width="250" height="250" viewBox="0 0 250 250" fill="none" xmlns="http://www.w3.org/2000/svg">
<rect width="250" height="250" fill="#E03131"/>
<circle cx="50.7123" cy="103.712" r="18.2123" stroke="white" stroke-width="5"/>
<circle cx="91.8613" cy="190.861" r="9.3613" stroke="white" stroke-width="3"/>
<circle cx="180.641" cy="88" r="36" transform="rotate(90 180.641 88)" stroke="white" stroke-width="8"/>
<path d="M141 117L129.457 117.31L135.497 127.151L141 117ZM100.975 140.389C100.504 140.678 100.357 141.294 100.645 141.765C100.934 142.235 101.55 142.383 102.021 142.094L100.975 140.389ZM132.806 120.855L100.975 140.389L102.021 142.094L133.852 122.56L132.806 120.855Z" fill="white"/>
<path d="M71 121L76.0325 131.393L82.5166 121.838L71 121ZM100.438 142.186C100.895 142.496 101.517 142.377 101.827 141.92C102.138 141.463 102.019 140.842 101.562 140.531L100.438 142.186ZM77.8855 126.881L100.438 142.186L101.562 140.531L79.0086 125.226L77.8855 126.881Z" fill="white"/>
<path d="M95 175L102.476 166.2L91.1171 164.125L95 175ZM102.128 141.539C102.227 140.995 101.867 140.474 101.324 140.375C100.781 140.276 100.26 140.636 100.16 141.179L102.128 141.539ZM97.6007 166.326L102.128 141.539L100.16 141.179L95.6333 165.967L97.6007 166.326Z" fill="white"/>
</svg>
