<svg width="301" height="301" fill="none" xmlns="http://www.w3.org/2000/svg"><path d="M150.499 300.998c83.118 0 150.499-67.381 150.499-150.499S233.617 0 150.499 0 0 67.38 0 150.499c0 83.118 67.38 150.499 150.499 150.499Z" fill="#E03131"/><path fill-rule="evenodd" clip-rule="evenodd" d="M152.489 34.879c14.612 0 27.528 5.407 35.206 13.626l3.696-5.35c-8.951-8.974-23.048-14.76-38.902-14.76-15.881 0-29.995 5.803-38.946 14.8l3.694 5.357c7.671-8.246 20.611-13.673 35.252-13.673Zm24.579 20.793c-6.385-4.905-14.971-7.607-24.179-7.607h.002c-9.208 0-17.795 2.702-24.18 7.607a27.552 27.552 0 0 0-3.995 3.724l-3.742-5.427c7.218-7.515 18.824-12.386 31.917-12.386 12.782 0 24.151 4.646 31.4 11.859l-3.724 5.401a28.344 28.344 0 0 0-3.499-3.172Zm-24.579 6.141c8.426 0 16.057 3.048 20.761 7.635l3.718-5.38c-5.874-5.343-14.66-8.738-24.479-8.738-9.844 0-18.651 3.41-24.525 8.778l3.715 5.389c4.7-4.615 12.357-7.684 20.81-7.684Zm-45.725 100.353v43.253c2.093 2.825 3.37 5.562 3.37 8.98a13.96 13.96 0 0 1-4.874 10.626l-3.713-3.767a8.593 8.593 0 0 0 3.368-6.848c0-4.728-3.774-8.563-8.429-8.563-4.653 0-8.425 3.835-8.425 8.564a8.601 8.601 0 0 0 3.321 6.815l-3.708 3.765c-2.954-2.547-4.9-6.343-4.9-10.58 0-3.421 1.046-6.57 3.13-8.992v-67.166c.346-2.587 2.315-4.679 4.85-4.679l121.335.015c2.537 0 4.539 2.077 4.887 4.664v67.199c1.734 2.42 3.129 5.552 3.129 8.975a13.971 13.971 0 0 1-4.868 10.58l-3.727-3.765a8.594 8.594 0 0 0 3.312-6.815c0-4.728-3.777-8.563-8.432-8.563-4.654 0-8.429 3.833-8.429 8.563a8.596 8.596 0 0 0 3.366 6.85l-3.711 3.769a13.984 13.984 0 0 1-4.876-10.638c0-3.42 1.348-6.164 3.375-8.989v-42.897h-5.91v90.816l3.477 2.331v7.467h-40.677v-7.467l4.518-2.242v-28.066h-11.82l.009 27.977 4.168 2.331v7.467h-41.03v-7.467l4.171-2.326v-91.177h-6.257ZM121 76.382h61.655c2.538 0 4.77 2.114 4.77 4.693v40.84c0 2.563-2.232 4.598-4.77 4.598h-61.654c-2.528 0-4.5-2.035-4.5-4.598v-40.84c0-2.579 1.972-4.693 4.499-4.693Zm15.123 29.973c-4.329 0-7.844-3.58-7.844-7.968 0-4.409 3.515-7.978 7.844-7.978 4.334 0 7.848 3.568 7.848 7.978 0 4.388-3.514 7.967-7.848 7.967v.001Zm23.649-7.968c0 4.388 3.519 7.968 7.864 7.968v-.001c4.336 0 7.849-3.579 7.849-7.967 0-4.41-3.513-7.978-7.849-7.978-4.343 0-7.864 3.57-7.864 7.978Zm-19.629.001c.008 2.242-1.791 4.067-4.02 4.076-2.209 0-4.011-1.832-4.011-4.076 0-2.268 1.803-4.086 4.011-4.086 1.073.004 2.1.436 2.854 1.203a4.066 4.066 0 0 1 1.166 2.883Zm23.478 0c-.009 2.241 1.788 4.065 4.015 4.076 2.229-.012 4.03-1.833 4.032-4.076.007-2.247-1.798-4.076-4.032-4.086-2.218 0-4.015 1.818-4.015 4.086Z" fill="#fff"/></svg>